<svg xmlns="http://www.w3.org/2000/svg" width="86" height="86" viewBox="0 0 86 86">
  <path fill="#fff" d="M0 0h86v86H0z"/>
  <path fill="#8B9707" d="M0 0h86v86H0V0Z"/>
  <path fill="#fff" d="M79.65 58.968v7.168H53.09v-7.168h8.96v-23.52a53.863 53.863 0 0 1 .128-3.648l-5.313 4.416c-.469.363-.938.587-1.407.672a4.288 4.288 0 0 1-1.28 0 3.5 3.5 0 0 1-1.088-.416c-.32-.213-.555-.427-.705-.64l-3.136-4.16L63.778 19.48h8.191v39.488h7.68ZM40.016 54.072c.256 0 .512.053.768.16.256.085.501.245.736.48l4.288 4.512a17.91 17.91 0 0 1-7.072 5.568c-2.816 1.237-6.155 1.856-10.016 1.856-3.541 0-6.72-.597-9.536-1.792-2.795-1.216-5.173-2.88-7.136-4.992-1.941-2.133-3.435-4.65-4.48-7.552C6.523 49.389 6 46.222 6 42.808c0-3.477.565-6.667 1.696-9.568 1.13-2.923 2.72-5.44 4.768-7.552 2.048-2.112 4.501-3.755 7.36-4.928S25.829 19 29.264 19c1.75 0 3.392.16 4.928.48 1.557.299 3.008.725 4.352 1.28a19.479 19.479 0 0 1 6.72 4.448l-3.648 4.896a5.114 5.114 0 0 1-.832.832c-.32.235-.768.352-1.344.352a2.4 2.4 0 0 1-1.088-.256 14.76 14.76 0 0 1-1.088-.608c-.384-.256-.81-.523-1.28-.8a7.755 7.755 0 0 0-1.632-.8c-.619-.256-1.355-.47-2.208-.64-.832-.17-1.813-.256-2.944-.256-1.792 0-3.435.33-4.928.992-1.472.661-2.752 1.632-3.84 2.912-1.067 1.259-1.899 2.816-2.496 4.672-.576 1.835-.864 3.936-.864 6.304 0 2.39.32 4.512.96 6.368.661 1.856 1.547 3.424 2.656 4.704a11.518 11.518 0 0 0 3.936 2.88c1.493.661 3.093.992 4.8.992.981 0 1.877-.043 2.688-.128a14.24 14.24 0 0 0 2.272-.48 10.437 10.437 0 0 0 1.984-.896 13.451 13.451 0 0 0 1.888-1.44c.256-.213.533-.384.832-.512.299-.15.608-.224.928-.224Z"/>
</svg>